<?xml version="1.0" encoding="UTF-8" standalone="no"?>
<!-- Created with Inkscape (http://www.inkscape.org/) -->

<svg
   xmlns:dc="http://purl.org/dc/elements/1.1/"
   xmlns:cc="http://creativecommons.org/ns#"
   xmlns:rdf="http://www.w3.org/1999/02/22-rdf-syntax-ns#"
   xmlns:svg="http://www.w3.org/2000/svg"
   xmlns="http://www.w3.org/2000/svg"
   xmlns:sodipodi="http://sodipodi.sourceforge.net/DTD/sodipodi-0.dtd"
   xmlns:inkscape="http://www.inkscape.org/namespaces/inkscape"
   width="195.29379"
   height="380.00003"
   viewBox="0 0 51.671483 100.54167"
   version="1.1"
   id="svg8630"
   inkscape:version="0.92.2 5c3e80d, 2017-08-06"
   sodipodi:docname="MyModule.svg">
  <defs
     id="defs8624" />
  <sodipodi:namedview
     id="base"
     pagecolor="#ffffff"
     bordercolor="#666666"
     borderopacity="1.0"
     inkscape:pageopacity="0.0"
     inkscape:pageshadow="2"
     inkscape:zoom="3.3719678"
     inkscape:cx="79.227076"
     inkscape:cy="53.181172"
     inkscape:document-units="mm"
     inkscape:current-layer="layer1"
     showgrid="false"
     fit-margin-top="0"
     fit-margin-left="0"
     fit-margin-right="0"
     fit-margin-bottom="0"
     units="px"
     inkscape:window-width="1280"
     inkscape:window-height="698"
     inkscape:window-x="17"
     inkscape:window-y="0"
     inkscape:window-maximized="0"
     inkscape:snap-text-baseline="true" />
  <metadata
     id="metadata8627">
    <rdf:RDF>
      <cc:Work
         rdf:about="">
        <dc:format>image/svg+xml</dc:format>
        <dc:type
           rdf:resource="http://purl.org/dc/dcmitype/StillImage" />
        <dc:title />
      </cc:Work>
    </rdf:RDF>
  </metadata>
  <g
     inkscape:label="Layer 1"
     inkscape:groupmode="layer"
     id="layer1"
     transform="translate(-44.467833,-88.735117)">
    <path
       inkscape:connector-curvature="0"
       id="path33449"
       d="M 44.541176,88.808436 H 96.065974 V 189.20454 H 44.541176 Z m 0,0"
       style="fill:#e3dedb;fill-opacity:1;fill-rule:nonzero;stroke:none;stroke-width:22.6;stroke-miterlimit:4;stroke-dasharray:none" />
    <rect
       style="stroke-width:14.31700325;stroke-miterlimit:4;stroke-dasharray:none"
       y="116.09609"
       x="79.07901"
       height="0.134"
       width="10.514385"
       id="rect22" />
    <rect
       id="rect53"
       width="10.514385"
       height="0.134"
       x="79.07901"
       y="130.38356"
       style="stroke-width:14.31700325;stroke-miterlimit:4;stroke-dasharray:none" />
    <rect
       style="stroke-width:14.31700325;stroke-miterlimit:4;stroke-dasharray:none"
       y="144.67087"
       x="79.07901"
       height="0.134"
       width="10.514385"
       id="rect55" />
    <rect
       id="rect57"
       width="10.514385"
       height="0.134"
       x="79.07901"
       y="158.95818"
       style="stroke-width:14.31700325;stroke-miterlimit:4;stroke-dasharray:none" />
    <g
       aria-label="FM"
       style="font-style:normal;font-weight:normal;font-size:10.58333302px;line-height:1.25;font-family:sans-serif;letter-spacing:0px;word-spacing:0px;fill:#000000;fill-opacity:1;stroke:none;stroke-width:22.6;stroke-miterlimit:4;stroke-dasharray:none"
       id="text61"
       transform="translate(0,5.8208336)">
      <path
         d="m 47.72651,95.629982 h 1.182356 v 0.234267 h -0.903993 v 0.606336 h 0.815799 v 0.234267 h -0.815799 v 0.982541 H 47.72651 Z"
         style="font-size:2.82222223px;line-height:2;stroke-width:22.6;stroke-miterlimit:4;stroke-dasharray:none"
         id="path4589"
         inkscape:connector-curvature="0" />
      <path
         d="m 49.352595,95.629982 h 0.414789 l 0.525033,1.400087 0.527788,-1.400087 h 0.41479 v 2.057411 h -0.271474 v -1.806608 l -0.530544,1.411111 H 50.153235 L 49.62269,95.880785 v 1.806608 h -0.270095 z"
         style="font-size:2.82222223px;line-height:2;stroke-width:22.6;stroke-miterlimit:4;stroke-dasharray:none"
         id="path4591"
         inkscape:connector-curvature="0" />
    </g>
    <g
       aria-label="Course
"
       style="font-style:normal;font-weight:normal;font-size:2.82222223px;line-height:1.25;font-family:sans-serif;letter-spacing:0px;word-spacing:0px;fill:#000000;fill-opacity:1;stroke:none;stroke-width:22.6;stroke-miterlimit:4;stroke-dasharray:none"
       id="text69"
       transform="translate(0,5.8208336)">
      <path
         d="m 56.799848,95.788457 v 0.293522 q -0.14056,-0.130914 -0.300412,-0.195682 -0.158474,-0.06477 -0.337619,-0.06477 -0.352778,0 -0.540191,0.216352 -0.187414,0.214974 -0.187414,0.622874 0,0.406521 0.187414,0.622873 0.187413,0.214974 0.540191,0.214974 0.179145,0 0.337619,-0.06477 0.159852,-0.06477 0.300412,-0.195681 v 0.290766 q -0.146072,0.09922 -0.310058,0.148828 -0.162609,0.04961 -0.34451,0.04961 -0.467155,0 -0.735872,-0.285254 -0.268718,-0.286632 -0.268718,-0.781347 0,-0.496094 0.268718,-0.781348 0.268717,-0.286632 0.735872,-0.286632 0.184657,0 0.347266,0.04961 0.163986,0.04823 0.307302,0.146072 z"
         style="font-size:2.82222223px;stroke-width:22.6;stroke-miterlimit:4;stroke-dasharray:none"
         id="path4594"
         inkscape:connector-curvature="0" />
      <path
         d="m 57.819596,96.321757 q -0.203949,0 -0.32246,0.159853 -0.118512,0.158474 -0.118512,0.43546 0,0.276986 0.117133,0.436838 0.118512,0.158474 0.323839,0.158474 0.202572,0 0.321083,-0.159852 0.118512,-0.159853 0.118512,-0.43546 0,-0.27423 -0.118512,-0.434082 -0.118511,-0.161231 -0.321083,-0.161231 z m 0,-0.214974 q 0.33073,0 0.519521,0.214974 0.188791,0.214974 0.188791,0.595313 0,0.37896 -0.188791,0.595312 -0.188791,0.214974 -0.519521,0.214974 -0.332107,0 -0.520898,-0.214974 -0.187413,-0.216352 -0.187413,-0.595312 0,-0.380339 0.187413,-0.595313 0.188791,-0.214974 0.520898,-0.214974 z"
         style="font-size:2.82222223px;stroke-width:22.6;stroke-miterlimit:4;stroke-dasharray:none"
         id="path4596"
         inkscape:connector-curvature="0" />
      <path
         d="m 58.920649,97.0783 v -0.93431 h 0.253559 v 0.924664 q 0,0.219108 0.08544,0.329351 0.08544,0.108865 0.256315,0.108865 0.205328,0 0.323839,-0.130913 0.11989,-0.130914 0.11989,-0.356912 V 96.14399 h 0.253559 v 1.543403 H 59.95969 v -0.237022 q -0.09233,0.14056 -0.214974,0.209461 -0.121268,0.06752 -0.282498,0.06752 -0.265961,0 -0.403765,-0.165364 -0.137804,-0.165365 -0.137804,-0.483692 z"
         style="font-size:2.82222223px;stroke-width:22.6;stroke-miterlimit:4;stroke-dasharray:none"
         id="path4598"
         inkscape:connector-curvature="0" />
      <path
         d="m 61.632628,96.381013 q -0.04272,-0.02481 -0.09371,-0.03583 -0.04961,-0.0124 -0.110243,-0.0124 -0.214974,0 -0.33073,0.14056 -0.114377,0.139181 -0.114377,0.401009 v 0.813042 H 60.728635 V 96.14399 h 0.254937 v 0.239779 q 0.07993,-0.14056 0.208084,-0.208084 0.128158,-0.0689 0.311437,-0.0689 0.02618,0 0.05788,0.0041 0.03169,0.0028 0.07028,0.0096 z"
         style="font-size:2.82222223px;stroke-width:22.6;stroke-miterlimit:4;stroke-dasharray:none"
         id="path4600"
         inkscape:connector-curvature="0" />
      <path
         d="m 62.885265,96.189466 v 0.239778 q -0.107487,-0.05512 -0.223242,-0.08268 -0.115756,-0.02756 -0.239779,-0.02756 -0.188791,0 -0.283876,0.05788 -0.09371,0.05788 -0.09371,0.173633 0,0.08819 0.06752,0.139182 0.06752,0.04961 0.271474,0.09508 l 0.08682,0.01929 q 0.270096,0.05788 0.383095,0.163986 0.114377,0.104731 0.114377,0.293522 0,0.214974 -0.170877,0.340376 -0.169498,0.125401 -0.467155,0.125401 -0.124023,0 -0.259071,-0.0248 -0.13367,-0.02343 -0.282498,-0.07166 v -0.261828 q 0.14056,0.07304 0.276986,0.110243 0.136426,0.03583 0.270095,0.03583 0.179145,0 0.275608,-0.06063 0.09646,-0.06201 0.09646,-0.173633 0,-0.103353 -0.07028,-0.158474 -0.0689,-0.05512 -0.304547,-0.106109 l -0.08819,-0.02067 q -0.235645,-0.04961 -0.340375,-0.151584 -0.104731,-0.103353 -0.104731,-0.282498 0,-0.21773 0.15434,-0.336241 0.15434,-0.118512 0.438216,-0.118512 0.14056,0 0.264583,0.02067 0.124024,0.02067 0.228755,0.06201 z"
         style="font-size:2.82222223px;stroke-width:22.6;stroke-miterlimit:4;stroke-dasharray:none"
         id="path4602"
         inkscape:connector-curvature="0" />
      <path
         d="m 64.693251,96.852302 v 0.124023 h -1.16582 q 0.01654,0.261828 0.157096,0.399632 0.141938,0.136425 0.394119,0.136425 0.146072,0 0.282498,-0.03583 0.137804,-0.03583 0.272851,-0.107487 v 0.239779 q -0.136425,0.05788 -0.279741,0.08819 -0.143316,0.03032 -0.290766,0.03032 -0.369315,0 -0.585667,-0.214974 -0.214974,-0.214974 -0.214974,-0.581532 0,-0.37896 0.20395,-0.600824 0.205328,-0.223243 0.552593,-0.223243 0.311437,0 0.49196,0.201194 0.181901,0.199815 0.181901,0.544325 z m -0.253559,-0.07441 q -0.0028,-0.208084 -0.117133,-0.332107 -0.112999,-0.124024 -0.300413,-0.124024 -0.212217,0 -0.340375,0.11989 -0.126779,0.119889 -0.146072,0.337619 z"
         style="font-size:2.82222223px;stroke-width:22.6;stroke-miterlimit:4;stroke-dasharray:none"
         id="path4604"
         inkscape:connector-curvature="0" />
    </g>
    <g
       aria-label="Fine
"
       style="font-style:normal;font-weight:normal;font-size:2.82222223px;line-height:1.25;font-family:sans-serif;letter-spacing:0px;word-spacing:0px;fill:#000000;fill-opacity:1;stroke:none;stroke-width:22.6;stroke-miterlimit:4;stroke-dasharray:none"
       id="text75"
       transform="translate(0,5.8208336)">
      <path
         d="m 67.558205,95.473053 h 1.182357 v 0.234267 h -0.903993 v 0.606336 h 0.815798 v 0.234267 h -0.815798 v 0.982541 h -0.278364 z"
         style="stroke-width:22.6;stroke-miterlimit:4;stroke-dasharray:none"
         id="path4607"
         inkscape:connector-curvature="0" />
      <path
         d="m 68.972072,95.987061 h 0.253559 v 1.543403 h -0.253559 z m 0,-0.600824 h 0.253559 v 0.321083 h -0.253559 z"
         style="stroke-width:22.6;stroke-miterlimit:4;stroke-dasharray:none"
         id="path4609"
         inkscape:connector-curvature="0" />
      <path
         d="m 71.040508,96.59891 v 0.931554 h -0.253559 v -0.923285 q 0,-0.219108 -0.08544,-0.327974 -0.08544,-0.108865 -0.256315,-0.108865 -0.205327,0 -0.323839,0.130914 -0.118511,0.130914 -0.118511,0.356912 v 0.872298 h -0.254937 v -1.543403 h 0.254937 v 0.239779 q 0.09095,-0.139182 0.213596,-0.208084 0.124023,-0.0689 0.285254,-0.0689 0.265961,0 0.402387,0.165365 0.136426,0.163986 0.136426,0.483691 z"
         style="stroke-width:22.6;stroke-miterlimit:4;stroke-dasharray:none"
         id="path4611"
         inkscape:connector-curvature="0" />
      <path
         d="m 72.869164,96.695373 v 0.124023 h -1.16582 q 0.01654,0.261828 0.157096,0.399632 0.141938,0.136425 0.394119,0.136425 0.146072,0 0.282498,-0.03583 0.137804,-0.03583 0.272852,-0.107487 v 0.239779 q -0.136426,0.05788 -0.279742,0.08819 -0.143316,0.03032 -0.290766,0.03032 -0.369314,0 -0.585666,-0.214974 -0.214974,-0.214974 -0.214974,-0.581532 0,-0.37896 0.203949,-0.600824 0.205328,-0.223243 0.552594,-0.223243 0.311436,0 0.491959,0.201194 0.181901,0.199815 0.181901,0.544325 z m -0.253559,-0.07441 q -0.0028,-0.208084 -0.117133,-0.332107 -0.112999,-0.124024 -0.300412,-0.124024 -0.212218,0 -0.340376,0.11989 -0.126779,0.119889 -0.146072,0.337619 z"
         style="stroke-width:22.6;stroke-miterlimit:4;stroke-dasharray:none"
         id="path4613"
         inkscape:connector-curvature="0" />
    </g>
    <g
       aria-label="Level"
       style="font-style:normal;font-weight:normal;font-size:2.82222223px;line-height:1.25;font-family:sans-serif;letter-spacing:0px;word-spacing:0px;fill:#000000;fill-opacity:1;stroke:none;stroke-width:22.6;stroke-miterlimit:4;stroke-dasharray:none"
       id="text81"
       transform="translate(0,5.8208336)">
      <path
         d="m 76.977875,95.361237 h 0.278364 v 1.823144 h 1.001834 v 0.234267 h -1.280198 z"
         style="stroke-width:22.6;stroke-miterlimit:4;stroke-dasharray:none"
         id="path4616"
         inkscape:connector-curvature="0" />
      <path
         d="m 79.811122,96.583557 v 0.124023 h -1.165821 q 0.01654,0.261827 0.157097,0.399631 0.141938,0.136426 0.394119,0.136426 0.146072,0 0.282498,-0.03583 0.137803,-0.03583 0.272851,-0.107487 v 0.23978 q -0.136426,0.05788 -0.279742,0.08819 -0.143316,0.03032 -0.290766,0.03032 -0.369314,0 -0.585666,-0.214974 -0.214974,-0.214974 -0.214974,-0.581532 0,-0.378961 0.20395,-0.600825 0.205327,-0.223242 0.552593,-0.223242 0.311437,0 0.49196,0.201194 0.181901,0.199815 0.181901,0.544326 z m -0.253559,-0.07441 q -0.0028,-0.208084 -0.117134,-0.332108 -0.112999,-0.124023 -0.300412,-0.124023 -0.212218,0 -0.340375,0.119889 -0.12678,0.11989 -0.146072,0.33762 z"
         style="stroke-width:22.6;stroke-miterlimit:4;stroke-dasharray:none"
         id="path4618"
         inkscape:connector-curvature="0" />
      <path
         d="m 80.048144,95.875245 h 0.268718 l 0.482313,1.295356 0.482314,-1.295356 h 0.268717 l -0.578776,1.543403 h -0.344509 z"
         style="stroke-width:22.6;stroke-miterlimit:4;stroke-dasharray:none"
         id="path4620"
         inkscape:connector-curvature="0" />
      <path
         d="m 83.220388,96.583557 v 0.124023 h -1.16582 q 0.01654,0.261827 0.157096,0.399631 0.141938,0.136426 0.394119,0.136426 0.146072,0 0.282498,-0.03583 0.137804,-0.03583 0.272852,-0.107487 v 0.23978 q -0.136426,0.05788 -0.279742,0.08819 -0.143316,0.03032 -0.290766,0.03032 -0.369314,0 -0.585666,-0.214974 -0.214974,-0.214974 -0.214974,-0.581532 0,-0.378961 0.203949,-0.600825 0.205328,-0.223242 0.552594,-0.223242 0.311436,0 0.491959,0.201194 0.181901,0.199815 0.181901,0.544326 z m -0.253559,-0.07441 q -0.0028,-0.208084 -0.117133,-0.332108 -0.112999,-0.124023 -0.300412,-0.124023 -0.212218,0 -0.340376,0.119889 -0.126779,0.11989 -0.146072,0.33762 z"
         style="stroke-width:22.6;stroke-miterlimit:4;stroke-dasharray:none"
         id="path4622"
         inkscape:connector-curvature="0" />
      <path
         d="m 83.636556,95.27442 h 0.253559 v 2.144228 h -0.253559 z"
         style="stroke-width:22.6;stroke-miterlimit:4;stroke-dasharray:none"
         id="path4624"
         inkscape:connector-curvature="0" />
    </g>
    <g
       aria-label="1V/oct"
       style="font-style:normal;font-weight:normal;font-size:2.82222223px;line-height:1.25;font-family:sans-serif;letter-spacing:0px;word-spacing:0px;fill:#000000;fill-opacity:1;stroke:none;stroke-width:22.6;stroke-miterlimit:4;stroke-dasharray:none"
       id="text4629"
       transform="translate(-1.5875,2.6458334)">
      <path
         d="m 47.924931,168.40265 h 0.454753 v -1.56958 l -0.494716,0.0992 v -0.25356 l 0.491959,-0.0992 h 0.278364 v 1.82314 h 0.454753 v 0.23427 h -1.185113 z"
         style="stroke-width:22.6;stroke-miterlimit:4;stroke-dasharray:none"
         id="path4631"
         inkscape:connector-curvature="0" />
      <path
         d="m 50.179401,168.63692 -0.785481,-2.05741 h 0.290766 l 0.651812,1.73219 0.65319,-1.73219 h 0.289388 l -0.784104,2.05741 z"
         style="stroke-width:22.6;stroke-miterlimit:4;stroke-dasharray:none"
         id="path4633"
         inkscape:connector-curvature="0" />
      <path
         d="m 52.017704,166.57951 h 0.234267 l -0.71658,2.31923 h -0.234266 z"
         style="stroke-width:22.6;stroke-miterlimit:4;stroke-dasharray:none"
         id="path4635"
         inkscape:connector-curvature="0" />
      <path
         d="m 53.118757,167.27128 q -0.20395,0 -0.322461,0.15985 -0.118511,0.15848 -0.118511,0.43546 0,0.27699 0.117133,0.43684 0.118511,0.15848 0.323839,0.15848 0.202571,0 0.321083,-0.15986 0.118511,-0.15985 0.118511,-0.43546 0,-0.27423 -0.118511,-0.43408 -0.118512,-0.16123 -0.321083,-0.16123 z m 0,-0.21497 q 0.330729,0 0.51952,0.21497 0.188791,0.21498 0.188791,0.59531 0,0.37896 -0.188791,0.59532 -0.188791,0.21497 -0.51952,0.21497 -0.332107,0 -0.520899,-0.21497 -0.187413,-0.21636 -0.187413,-0.59532 0,-0.38033 0.187413,-0.59531 0.188792,-0.21497 0.520899,-0.21497 z"
         style="stroke-width:22.6;stroke-miterlimit:4;stroke-dasharray:none"
         id="path4637"
         inkscape:connector-curvature="0" />
      <path
         d="m 55.356691,167.15277 v 0.23702 q -0.107487,-0.0592 -0.216352,-0.0882 -0.107487,-0.0303 -0.21773,-0.0303 -0.246669,0 -0.383095,0.1571 -0.136426,0.15572 -0.136426,0.43821 0,0.2825 0.136426,0.4396 0.136426,0.15572 0.383095,0.15572 0.110243,0 0.21773,-0.0289 0.108865,-0.0303 0.216352,-0.0896 v 0.23427 q -0.106109,0.0496 -0.220486,0.0744 -0.113,0.0248 -0.241157,0.0248 -0.348644,0 -0.553971,-0.21911 -0.205328,-0.21911 -0.205328,-0.59118 0,-0.37758 0.206706,-0.59393 0.208083,-0.21635 0.569129,-0.21635 0.117134,0 0.228755,0.0248 0.111621,0.0234 0.216352,0.0717 z"
         style="stroke-width:22.6;stroke-miterlimit:4;stroke-dasharray:none"
         id="path4639"
         inkscape:connector-curvature="0" />
      <path
         d="m 56.051222,166.6553 v 0.43821 h 0.522276 v 0.19706 h -0.522276 v 0.83785 q 0,0.18879 0.05099,0.24254 0.05237,0.0537 0.21084,0.0537 h 0.260449 v 0.21222 h -0.260449 q -0.293522,0 -0.405143,-0.10887 -0.111621,-0.11024 -0.111621,-0.39963 v -0.83785 H 55.61025 v -0.19706 h 0.186035 v -0.43821 z"
         style="stroke-width:22.6;stroke-miterlimit:4;stroke-dasharray:none"
         id="path4641"
         inkscape:connector-curvature="0" />
    </g>
    <g
       aria-label="Out
"
       style="font-style:normal;font-weight:normal;font-size:2.82222223px;line-height:1.25;font-family:sans-serif;letter-spacing:0px;word-spacing:0px;fill:#000000;fill-opacity:1;stroke:none;stroke-width:22.6;stroke-miterlimit:4;stroke-dasharray:none"
       id="text4665"
       transform="translate(10.054167,2.6458334)">
      <path
         d="m 78.315194,166.7683 q -0.303168,0 -0.482313,0.226 -0.177767,0.22599 -0.177767,0.61598 0,0.38861 0.177767,0.6146 0.179145,0.226 0.482313,0.226 0.303169,0 0.479557,-0.226 0.177767,-0.22599 0.177767,-0.6146 0,-0.38999 -0.177767,-0.61598 -0.176388,-0.226 -0.479557,-0.226 z m 0,-0.226 q 0.432704,0 0.691775,0.29077 0.259072,0.28938 0.259072,0.77721 0,0.48645 -0.259072,0.77721 -0.259071,0.28939 -0.691775,0.28939 -0.434082,0 -0.694531,-0.28939 -0.259071,-0.28939 -0.259071,-0.77721 0,-0.48783 0.259071,-0.77721 0.260449,-0.29077 0.694531,-0.29077 z"
         style="stroke-width:22.6;stroke-miterlimit:4;stroke-dasharray:none"
         id="path4669"
         inkscape:connector-curvature="0" />
      <path
         d="m 79.664294,168.02782 v -0.93431 h 0.253559 v 0.92467 q 0,0.21911 0.08544,0.32935 0.08544,0.10886 0.256315,0.10886 0.205328,0 0.323839,-0.13091 0.119889,-0.13091 0.119889,-0.35691 v -0.87506 h 0.253559 v 1.54341 h -0.253559 v -0.23703 q -0.09233,0.14056 -0.214974,0.20947 -0.121267,0.0675 -0.282497,0.0675 -0.265962,0 -0.403766,-0.16536 -0.137803,-0.16537 -0.137803,-0.4837 z"
         style="stroke-width:22.6;stroke-miterlimit:4;stroke-dasharray:none"
         id="path4671"
         inkscape:connector-curvature="0" />
      <path
         d="m 81.732729,166.6553 v 0.43821 h 0.522277 v 0.19706 h -0.522277 v 0.83785 q 0,0.18879 0.05099,0.24254 0.05237,0.0537 0.210839,0.0537 h 0.26045 v 0.21222 h -0.26045 q -0.293522,0 -0.405143,-0.10887 -0.111621,-0.11024 -0.111621,-0.39963 v -0.83785 h -0.186035 v -0.19706 h 0.186035 v -0.43821 z"
         style="stroke-width:22.6;stroke-miterlimit:4;stroke-dasharray:none"
         id="path4673"
         inkscape:connector-curvature="0" />
    </g>
    <g
       aria-label="B"
       style="font-style:normal;font-weight:normal;font-size:2.82222223px;line-height:1.25;font-family:sans-serif;letter-spacing:0px;word-spacing:0px;fill:#000000;fill-opacity:1;stroke:none;stroke-width:22.6;stroke-miterlimit:4;stroke-dasharray:none"
       id="text4853"
       transform="translate(0,-9.5250003)">
      <path
         d="m 69.746199,146.96315 v 0.75379 h 0.446484 q 0.22462,0 0.332107,-0.0923 0.108865,-0.0937 0.108865,-0.28525 0,-0.19293 -0.108865,-0.28388 -0.107487,-0.0923 -0.332107,-0.0923 z m 0,-0.84611 v 0.62011 h 0.412033 q 0.20395,0 0.303169,-0.0758 0.100596,-0.0772 0.100596,-0.23426 0,-0.15572 -0.100596,-0.23289 -0.09922,-0.0772 -0.303169,-0.0772 z m -0.278364,-0.22876 h 0.711068 q 0.318327,0 0.490581,0.13229 0.172255,0.1323 0.172255,0.37621 0,0.18879 -0.08819,0.30041 -0.08819,0.11162 -0.259072,0.13918 0.205328,0.0441 0.318327,0.18466 0.114377,0.13918 0.114377,0.34864 0,0.27561 -0.187413,0.42582 -0.187413,0.1502 -0.533301,0.1502 h -0.738628 z"
         style="stroke-width:22.6;stroke-miterlimit:4;stroke-dasharray:none"
         id="path4873"
         inkscape:connector-curvature="0" />
    </g>
    <g
       aria-label="C"
       style="font-style:normal;font-weight:normal;font-size:2.82222223px;line-height:1.25;font-family:sans-serif;letter-spacing:0px;word-spacing:0px;fill:#000000;fill-opacity:1;stroke:none;stroke-width:22.6;stroke-miterlimit:4;stroke-dasharray:none"
       id="text4857"
       transform="translate(0,-9.5250003)">
      <path
         d="m 71.126989,131.77134 v 0.29352 q -0.14056,-0.13092 -0.300412,-0.19568 -0.158475,-0.0648 -0.33762,-0.0648 -0.352777,0 -0.540191,0.21635 -0.187413,0.21498 -0.187413,0.62287 0,0.40653 0.187413,0.62288 0.187414,0.21497 0.540191,0.21497 0.179145,0 0.33762,-0.0648 0.159852,-0.0648 0.300412,-0.19568 v 0.29077 q -0.146072,0.0992 -0.310059,0.14883 -0.162608,0.0496 -0.344509,0.0496 -0.467155,0 -0.735872,-0.28526 -0.268718,-0.28663 -0.268718,-0.78135 0,-0.49609 0.268718,-0.78134 0.268717,-0.28664 0.735872,-0.28664 0.184657,0 0.347266,0.0496 0.163986,0.0482 0.307302,0.14608 z"
         style="stroke-width:22.6;stroke-miterlimit:4;stroke-dasharray:none"
         id="path4870"
         inkscape:connector-curvature="0" />
    </g>
    <g
       aria-label="D"
       style="font-style:normal;font-weight:normal;font-size:2.82222223px;line-height:1.25;font-family:sans-serif;letter-spacing:0px;word-spacing:0px;fill:#000000;fill-opacity:1;stroke:none;stroke-width:22.6;stroke-miterlimit:4;stroke-dasharray:none"
       id="text4861"
       transform="translate(0,-9.5250003)">
      <path
         d="m 69.746199,117.56584 v 1.5999 h 0.336241 q 0.425814,0 0.622873,-0.19293 0.198438,-0.19292 0.198438,-0.60909 0,-0.41341 -0.198438,-0.60496 -0.197059,-0.19292 -0.622873,-0.19292 z m -0.278364,-0.22876 h 0.571886 q 0.598068,0 0.87781,0.24943 0.279742,0.24804 0.279742,0.77721 0,0.53192 -0.28112,0.78135 -0.28112,0.24942 -0.876432,0.24942 h -0.571886 z"
         style="stroke-width:22.6;stroke-miterlimit:4;stroke-dasharray:none"
         id="path4867"
         inkscape:connector-curvature="0" />
    </g>
    <g
       aria-label="A"
       style="font-style:normal;font-weight:normal;font-size:2.82222223px;line-height:1.25;font-family:sans-serif;letter-spacing:0px;word-spacing:0px;fill:#000000;fill-opacity:1;stroke:none;stroke-width:22.6;stroke-miterlimit:4;stroke-dasharray:none"
       id="text4865"
       transform="translate(0,4.7625002)">
      <path
         d="m 70.410412,146.2192 -0.377582,1.02388 h 0.756543 z m -0.157096,-0.27423 h 0.315571 l 0.784103,2.05741 h -0.289388 l -0.187413,-0.52779 h -0.92742 l -0.187413,0.52779 h -0.293522 z"
         style="stroke-width:22.6;stroke-miterlimit:4;stroke-dasharray:none"
         id="path4920"
         inkscape:connector-curvature="0" />
    </g>
    <g
       aria-label="Mod
"
       style="font-style:normal;font-weight:normal;font-size:2.82222223px;line-height:1.25;font-family:sans-serif;letter-spacing:0px;word-spacing:0px;fill:#000000;fill-opacity:1;stroke:none;stroke-width:22.6;stroke-miterlimit:4;stroke-dasharray:none"
       id="text4925">
      <path
         d="m 87.933449,101.22113 h 0.41479 l 0.525032,1.40009 0.527789,-1.40009 h 0.414789 v 2.05741 h -0.271473 v -1.80661 l -0.530545,1.41111 h -0.279742 l -0.530544,-1.41111 v 1.80661 h -0.270096 z"
         style="stroke-width:22.6;stroke-miterlimit:4;stroke-dasharray:none"
         id="path4929" />
      <path
         d="m 90.956865,101.91291 q -0.20395,0 -0.322461,0.15985 -0.118511,0.15847 -0.118511,0.43546 0,0.27698 0.117133,0.43684 0.118511,0.15847 0.323839,0.15847 0.202572,0 0.321083,-0.15985 0.118511,-0.15985 0.118511,-0.43546 0,-0.27423 -0.118511,-0.43408 -0.118511,-0.16123 -0.321083,-0.16123 z m 0,-0.21498 q 0.330729,0 0.519521,0.21498 0.188791,0.21497 0.188791,0.59531 0,0.37896 -0.188791,0.59531 -0.188792,0.21497 -0.519521,0.21497 -0.332107,0 -0.520898,-0.21497 -0.187413,-0.21635 -0.187413,-0.59531 0,-0.38034 0.187413,-0.59531 0.188791,-0.21498 0.520898,-0.21498 z"
         style="stroke-width:22.6;stroke-miterlimit:4;stroke-dasharray:none"
         id="path4931" />
      <path
         d="m 93.099715,101.96941 v -0.8351 h 0.253559 v 2.14423 h -0.253559 v -0.23151 q -0.07993,0.1378 -0.202572,0.20533 -0.121267,0.0661 -0.292144,0.0661 -0.279742,0 -0.456131,-0.22324 -0.175011,-0.22324 -0.175011,-0.58704 0,-0.3638 0.175011,-0.58705 0.176389,-0.22324 0.456131,-0.22324 0.170877,0 0.292144,0.0675 0.122645,0.0661 0.202572,0.20395 z m -0.86403,0.53881 q 0,0.27974 0.114377,0.43959 0.115755,0.15848 0.316949,0.15848 0.201193,0 0.316948,-0.15848 0.115756,-0.15985 0.115756,-0.43959 0,-0.27974 -0.115756,-0.43822 -0.115755,-0.15985 -0.316948,-0.15985 -0.201194,0 -0.316949,0.15985 -0.114377,0.15848 -0.114377,0.43822 z"
         style="stroke-width:22.6;stroke-miterlimit:4;stroke-dasharray:none"
         id="path4933" />
    </g>
    <text
       xml:space="preserve"
       style="font-style:normal;font-weight:normal;font-size:6.35px;line-height:1.25;font-family:'.Arial Hebrew Desk Interface';letter-spacing:0px;word-spacing:0px;fill:#000000;fill-opacity:1;stroke:none;stroke-width:22.6;-inkscape-font-specification:'.Arial Hebrew Desk Interface';font-stretch:normal;font-variant:normal;stroke-miterlimit:4;stroke-dasharray:none"
       x="68.880585"
       y="180.39943"
       id="text4940"><tspan
         sodipodi:role="line"
         id="tspan4938"
         x="68.880585"
         y="184.45706"
         style="stroke-width:22.6;font-size:6.35px;-inkscape-font-specification:'.Arial Hebrew Desk Interface';font-family:'.Arial Hebrew Desk Interface';font-weight:normal;font-style:normal;font-stretch:normal;font-variant:normal;stroke-miterlimit:4;stroke-dasharray:none" /></text>
    <text
       xml:space="preserve"
       style="font-style:normal;font-weight:normal;font-size:4.58611107px;line-height:1.25;font-family:'.Arial Hebrew Desk Interface';letter-spacing:0px;word-spacing:0px;fill:#000000;fill-opacity:1;stroke:none;stroke-width:22.6;-inkscape-font-specification:'.Arial Hebrew Desk Interface';font-stretch:normal;font-variant:normal;stroke-miterlimit:4;stroke-dasharray:none"
       x="68.658653"
       y="177.07042"
       id="text4944"><tspan
         sodipodi:role="line"
         id="tspan4942"
         x="68.658653"
         y="181.12805"
         style="stroke-width:22.6;-inkscape-font-specification:'.Arial Hebrew Desk Interface';font-family:'.Arial Hebrew Desk Interface';font-weight:normal;font-style:normal;font-stretch:normal;font-variant:normal;stroke-miterlimit:4;stroke-dasharray:none" /></text>
    <g
       aria-label="BLUERAYS"
       style="font-style:normal;font-variant:normal;font-weight:normal;font-stretch:normal;font-size:5.64444447px;line-height:1.25;font-family:'.Arial Hebrew Desk Interface';-inkscape-font-specification:'.Arial Hebrew Desk Interface';letter-spacing:0px;word-spacing:0px;fill:#000000;fill-opacity:1;stroke:none;stroke-width:22.60000038;stroke-miterlimit:4;stroke-dasharray:none"
       id="text4948">
      <path
         d="m 65.70716,186.05162 h 0.09102 q 0.156634,0 0.224367,-0.0402 0.06773,-0.0402 0.06773,-0.12911 0,-0.0889 -0.06773,-0.12912 -0.06773,-0.0402 -0.224367,-0.0402 h -0.09102 z m 0,-0.6477 h 0.0762 q 0.194733,0 0.194733,-0.15452 0,-0.15451 -0.194733,-0.15451 h -0.0762 z m -0.414867,-0.62653 h 0.618067 q 0.220133,0 0.334433,0.10583 0.1143,0.10583 0.1143,0.3048 0,0.12065 -0.04445,0.20108 -0.04233,0.0783 -0.131233,0.13335 0.0889,0.0169 0.150283,0.0529 0.0635,0.0339 0.1016,0.0847 0.04022,0.0508 0.05715,0.1143 0.01693,0.0635 0.01693,0.13546 0,0.11219 -0.04022,0.19897 -0.0381,0.0868 -0.110067,0.14605 -0.06985,0.0593 -0.17145,0.0889 -0.1016,0.0296 -0.2286,0.0296 h -0.66675 z"
         style="font-style:normal;font-variant:normal;font-weight:bold;font-stretch:normal;font-size:2.11666656px;font-family:Futura;-inkscape-font-specification:'Futura Bold';fill:#0000ea;fill-opacity:1;stroke-width:22.60000038;stroke-miterlimit:4;stroke-dasharray:none"
         id="path4971" />
      <path
         d="m 67.170636,184.77739 v 1.2446 h 0.497417 v 0.35136 h -0.912284 v -1.59596 z"
         style="font-style:normal;font-variant:normal;font-weight:bold;font-stretch:normal;font-size:2.11666656px;font-family:Futura;-inkscape-font-specification:'Futura Bold';fill:#0000ea;fill-opacity:1;stroke-width:22.60000038;stroke-miterlimit:4;stroke-dasharray:none"
         id="path4973" />
      <path
         d="m 68.266176,184.77739 v 0.86783 q 0,0.0699 0.0042,0.14393 0.0063,0.072 0.03175,0.13124 0.02752,0.0593 0.08467,0.0974 0.05715,0.036 0.160867,0.036 0.103717,0 0.15875,-0.036 0.05715,-0.0381 0.08467,-0.0974 0.02752,-0.0593 0.03175,-0.13124 0.0063,-0.0741 0.0063,-0.14393 v -0.86783 h 0.41275 v 0.92498 q 0,0.37253 -0.17145,0.54398 -0.169334,0.17145 -0.522817,0.17145 -0.353483,0 -0.524933,-0.17145 -0.17145,-0.17145 -0.17145,-0.54398 v -0.92498 z"
         style="font-style:normal;font-variant:normal;font-weight:bold;font-stretch:normal;font-size:2.11666656px;font-family:Futura;-inkscape-font-specification:'Futura Bold';fill:#0000ea;fill-opacity:1;stroke-width:22.60000038;stroke-miterlimit:4;stroke-dasharray:none"
         id="path4975" />
      <path
         d="m 70.483286,185.12875 h -0.493184 v 0.2667 h 0.465667 v 0.35137 h -0.465667 v 0.27517 h 0.493184 v 0.35136 h -0.90805 v -1.59596 h 0.90805 z"
         style="font-style:normal;font-variant:normal;font-weight:bold;font-stretch:normal;font-size:2.11666656px;font-family:Futura;-inkscape-font-specification:'Futura Bold';fill:#0000ea;fill-opacity:1;stroke-width:22.60000038;stroke-miterlimit:4;stroke-dasharray:none"
         id="path4977" />
      <path
         d="m 71.197263,185.4907 h 0.07832 q 0.122767,0 0.188383,-0.0508 0.06562,-0.0508 0.06562,-0.14605 0,-0.0952 -0.06562,-0.14605 -0.06562,-0.0508 -0.188383,-0.0508 h -0.07832 z m 0.912284,0.88265 H 71.59308 l -0.395817,-0.61383 v 0.61383 h -0.414866 v -1.59596 h 0.645583 q 0.13335,0 0.232833,0.0402 0.09948,0.0381 0.162984,0.10584 0.06562,0.0677 0.09737,0.15663 0.03387,0.0889 0.03387,0.1905 0,0.18203 -0.0889,0.29633 -0.08678,0.11219 -0.258233,0.1524 z"
         style="font-style:normal;font-variant:normal;font-weight:bold;font-stretch:normal;font-size:2.11666656px;font-family:Futura;-inkscape-font-specification:'Futura Bold';fill:#0000ea;fill-opacity:1;stroke-width:22.60000038;stroke-miterlimit:4;stroke-dasharray:none"
         id="path4979" />
      <path
         d="m 73.150914,185.78069 -0.186267,-0.53129 -0.186267,0.53129 z m 0.110066,0.31538 h -0.592666 l -0.09525,0.27728 H 72.13068 l 0.607484,-1.59596 h 0.452966 l 0.607484,1.59596 H 73.35623 Z"
         style="font-style:normal;font-variant:normal;font-weight:bold;font-stretch:normal;font-size:2.11666656px;font-family:Futura;-inkscape-font-specification:'Futura Bold';fill:#0000ea;fill-opacity:1;stroke-width:22.60000038;stroke-miterlimit:4;stroke-dasharray:none"
         id="path4981" />
      <path
         d="m 74.218607,185.60712 -0.582084,-0.82973 h 0.4953 l 0.296334,0.43603 0.294216,-0.43603 h 0.4953 l -0.5842,0.82973 v 0.76623 h -0.414866 z"
         style="font-style:normal;font-variant:normal;font-weight:bold;font-stretch:normal;font-size:2.11666656px;font-family:Futura;-inkscape-font-specification:'Futura Bold';fill:#0000ea;fill-opacity:1;stroke-width:22.60000038;stroke-miterlimit:4;stroke-dasharray:none"
         id="path4983" />
      <path
         d="m 76.164881,185.1859 q -0.06773,-0.055 -0.135466,-0.0804 -0.06773,-0.0275 -0.131234,-0.0275 -0.08043,0 -0.131233,0.0381 -0.0508,0.0381 -0.0508,0.0995 0,0.0423 0.0254,0.0699 0.0254,0.0275 0.06562,0.0487 0.04233,0.019 0.09313,0.0339 0.05292,0.0148 0.103717,0.0317 0.2032,0.0677 0.296333,0.18203 0.09525,0.11218 0.09525,0.29422 0,0.12276 -0.04233,0.22225 -0.04022,0.0995 -0.12065,0.17145 -0.07832,0.0699 -0.194734,0.10795 -0.1143,0.0402 -0.26035,0.0402 -0.302683,0 -0.560916,-0.17991 l 0.1778,-0.33444 q 0.09313,0.0825 0.18415,0.12277 0.09102,0.0402 0.179916,0.0402 0.1016,0 0.150284,-0.0466 0.0508,-0.0466 0.0508,-0.10583 0,-0.036 -0.0127,-0.0614 -0.0127,-0.0275 -0.04233,-0.0487 -0.02963,-0.0233 -0.07832,-0.0423 -0.04657,-0.019 -0.1143,-0.0423 -0.08043,-0.0254 -0.15875,-0.055 -0.0762,-0.0317 -0.137584,-0.0825 -0.05927,-0.0508 -0.09737,-0.127 -0.03598,-0.0783 -0.03598,-0.19685 0,-0.11853 0.0381,-0.21378 0.04022,-0.0974 0.110067,-0.1651 0.07197,-0.0698 0.173567,-0.10795 0.103716,-0.0381 0.230716,-0.0381 0.118534,0 0.24765,0.0339 0.129117,0.0318 0.24765,0.0953 z"
         style="font-style:normal;font-variant:normal;font-weight:bold;font-stretch:normal;font-size:2.11666656px;font-family:Futura;-inkscape-font-specification:'Futura Bold';fill:#0000ea;fill-opacity:1;stroke-width:22.60000038;stroke-miterlimit:4;stroke-dasharray:none"
         id="path4985" />
    </g>
    <g
       aria-label="Sines"
       style="font-style:normal;font-variant:normal;font-weight:normal;font-stretch:normal;font-size:5.64444447px;line-height:1.25;font-family:'.Arial Hebrew Desk Interface';-inkscape-font-specification:'.Arial Hebrew Desk Interface';letter-spacing:0px;word-spacing:0px;fill:#000000;fill-opacity:1;stroke:none;stroke-width:22.60000038;stroke-miterlimit:4;stroke-dasharray:none"
       id="text4952">
      <path
         d="m 66.496567,92.399517 v 0.762055 q -0.296622,-0.132636 -0.578776,-0.20016 -0.282153,-0.06752 -0.532956,-0.06752 -0.332796,0 -0.49196,0.09164 -0.159163,0.09164 -0.159163,0.284565 0,0.144694 0.106109,0.226688 0.10852,0.07958 0.390674,0.137459 l 0.395497,0.07958 q 0.60048,0.120578 0.853694,0.366558 0.253215,0.24598 0.253215,0.699354 0,0.595657 -0.3545,0.887457 -0.352089,0.289388 -1.077971,0.289388 -0.342442,0 -0.687296,-0.06511 -0.344854,-0.06511 -0.689709,-0.192926 v -0.783759 q 0.344855,0.183279 0.665593,0.27733 0.32315,0.09164 0.622184,0.09164 0.303858,0 0.465433,-0.101286 0.161575,-0.101286 0.161575,-0.289388 0,-0.16881 -0.110932,-0.260449 -0.108521,-0.09164 -0.436494,-0.163987 l -0.359324,-0.07958 q -0.540191,-0.115755 -0.790994,-0.368969 -0.248391,-0.253215 -0.248391,-0.682474 0,-0.537779 0.347266,-0.827167 0.347265,-0.289388 0.998388,-0.289388 0.296623,0 0.610127,0.04582 0.313504,0.04341 0.648711,0.132636 z"
         style="font-style:normal;font-variant:normal;font-weight:900;font-stretch:normal;font-size:4.93888903px;font-family:'.SF NS Symbols';-inkscape-font-specification:'.SF NS Symbols Heavy';stroke-width:22.60000038;stroke-miterlimit:4;stroke-dasharray:none"
         id="path4960" />
      <path
         d="m 67.511837,93.185688 h 0.863341 v 2.700954 h -0.863341 z m 0,-1.051444 h 0.863341 v 0.704178 h -0.863341 z"
         style="font-style:normal;font-variant:normal;font-weight:900;font-stretch:normal;font-size:4.93888903px;font-family:'.SF NS Symbols';-inkscape-font-specification:'.SF NS Symbols Heavy';stroke-width:22.60000038;stroke-miterlimit:4;stroke-dasharray:none"
         id="path4962" />
      <path
         d="m 71.925005,94.241954 v 1.644688 h -0.868164 v -0.267683 -0.991154 q 0,-0.349678 -0.01688,-0.482314 -0.01447,-0.132636 -0.05306,-0.195337 -0.05064,-0.08441 -0.137459,-0.130224 -0.08682,-0.04823 -0.197749,-0.04823 -0.270095,0 -0.424436,0.209807 -0.15434,0.207394 -0.15434,0.576364 v 1.328773 H 69.20958 v -2.700954 h 0.863341 v 0.395496 q 0.195337,-0.236333 0.41479,-0.347265 0.219452,-0.113344 0.484725,-0.113344 0.467844,0 0.709,0.286977 0.243569,0.286976 0.243569,0.834402 z"
         style="font-style:normal;font-variant:normal;font-weight:900;font-stretch:normal;font-size:4.93888903px;font-family:'.SF NS Symbols';-inkscape-font-specification:'.SF NS Symbols Heavy';stroke-width:22.60000038;stroke-miterlimit:4;stroke-dasharray:none"
         id="path4964" />
      <path
         d="m 75.4266,94.52893 v 0.24598 h -2.018482 q 0.03135,0.303858 0.219453,0.455786 0.188102,0.151929 0.525722,0.151929 0.272507,0 0.557072,-0.07958 0.286976,-0.08199 0.588422,-0.24598 v 0.665593 q -0.306269,0.115755 -0.612538,0.173633 -0.306269,0.06029 -0.612538,0.06029 -0.733116,0 -1.140671,-0.371381 -0.405144,-0.373793 -0.405144,-1.04662 0,-0.66077 0.397909,-1.039386 0.40032,-0.378616 1.099675,-0.378616 0.636653,0 1.017681,0.383439 0.383439,0.383439 0.383439,1.024916 z m -0.887457,-0.286976 q 0,-0.24598 -0.144694,-0.395497 -0.142282,-0.151929 -0.373793,-0.151929 -0.250803,0 -0.407554,0.142283 -0.156752,0.13987 -0.195337,0.405143 z"
         style="font-style:normal;font-variant:normal;font-weight:900;font-stretch:normal;font-size:4.93888903px;font-family:'.SF NS Symbols';-inkscape-font-specification:'.SF NS Symbols Heavy';stroke-width:22.60000038;stroke-miterlimit:4;stroke-dasharray:none"
         id="path4966" />
      <path
         d="m 78.187844,93.270092 v 0.655947 q -0.27733,-0.115756 -0.535368,-0.173633 -0.258038,-0.05788 -0.487136,-0.05788 -0.24598,0 -0.366559,0.0627 -0.118166,0.06029 -0.118166,0.188102 0,0.103697 0.08923,0.159164 0.09164,0.05547 0.325561,0.08199 l 0.151929,0.0217 q 0.663181,0.08441 0.89228,0.27733 0.229098,0.192925 0.229098,0.605303 0,0.431671 -0.318326,0.648712 -0.318327,0.217041 -0.950158,0.217041 -0.267684,0 -0.55466,-0.04341 -0.284565,-0.041 -0.586011,-0.125402 v -0.655946 q 0.258038,0.125401 0.528133,0.188102 0.272507,0.0627 0.552249,0.0627 0.253215,0 0.381028,-0.06994 0.127813,-0.06994 0.127813,-0.207395 0,-0.115755 -0.08923,-0.171221 -0.08682,-0.05788 -0.349678,-0.08923 l -0.151928,-0.01929 q -0.576365,-0.07235 -0.807875,-0.267684 -0.231511,-0.195337 -0.231511,-0.593245 0,-0.429259 0.294212,-0.636654 0.294211,-0.207395 0.901926,-0.207395 0.238745,0 0.501606,0.03617 0.26286,0.03617 0.571541,0.113343 z"
         style="font-style:normal;font-variant:normal;font-weight:900;font-stretch:normal;font-size:4.93888903px;font-family:'.SF NS Symbols';-inkscape-font-specification:'.SF NS Symbols Heavy';stroke-width:22.60000038;stroke-miterlimit:4;stroke-dasharray:none"
         id="path4968" />
    </g>
    <text
       xml:space="preserve"
       style="font-style:normal;font-weight:normal;font-size:5.64444447px;line-height:1.25;font-family:sans-serif;letter-spacing:0px;word-spacing:0px;fill:#000000;fill-opacity:1;stroke:none;stroke-width:0.26458332"
       x="65.967392"
       y="84.132942"
       id="text4958"><tspan
         sodipodi:role="line"
         id="tspan4956"
         x="65.967392"
         y="89.126953"
         style="stroke-width:0.26458332" /></text>
    <rect
       style="fill:#000000;fill-opacity:0;fill-rule:nonzero;stroke:#000000;stroke-width:0.15598698;stroke-miterlimit:4;stroke-dasharray:none;stroke-opacity:1;paint-order:stroke fill markers"
       id="rect4988"
       width="46.464016"
       height="1.3022367e-05"
       x="47.095829"
       y="-105.90691"
       transform="scale(1,-1)" />
    <rect
       transform="scale(1,-1)"
       y="-166.2314"
       x="47.095829"
       height="1.3022367e-05"
       width="46.464016"
       id="rect4990"
       style="fill:#000000;fill-opacity:0;fill-rule:nonzero;stroke:#000000;stroke-width:0.15598698;stroke-miterlimit:4;stroke-dasharray:none;stroke-opacity:1;paint-order:stroke fill markers" />
    <g
       aria-label="Freq
"
       style="font-style:normal;font-weight:normal;font-size:2.82222223px;line-height:1.25;font-family:sans-serif;letter-spacing:0px;word-spacing:0px;fill:#000000;fill-opacity:1;stroke:none;stroke-width:0.26458332"
       id="text4994">
      <path
         d="m 67.781106,168.99107 h 1.182356 v 0.23426 h -0.903993 v 0.60634 h 0.815799 v 0.23427 h -0.815799 v 0.98254 h -0.278363 z"
         style="stroke-width:0.26458332"
         id="path4998" />
      <path
         d="m 70.08932,169.7421 q -0.04272,-0.0248 -0.09371,-0.0358 -0.04961,-0.0124 -0.110243,-0.0124 -0.214974,0 -0.330729,0.14056 -0.114377,0.13918 -0.114377,0.401 v 0.81305 h -0.254938 v -1.54341 h 0.254938 v 0.23978 q 0.07993,-0.14056 0.208083,-0.20808 0.128158,-0.0689 0.311437,-0.0689 0.02618,0 0.05788,0.004 0.03169,0.003 0.07028,0.01 z"
         style="stroke-width:0.26458332"
         id="path5000" />
      <path
         d="m 71.617564,170.21339 v 0.12402 h -1.16582 q 0.01654,0.26183 0.157096,0.39963 0.141938,0.13643 0.394119,0.13643 0.146072,0 0.282498,-0.0358 0.137804,-0.0358 0.272851,-0.10749 v 0.23978 q -0.136426,0.0579 -0.279742,0.0882 -0.143315,0.0303 -0.290766,0.0303 -0.369314,0 -0.585666,-0.21497 -0.214974,-0.21498 -0.214974,-0.58154 0,-0.37896 0.20395,-0.60082 0.205328,-0.22324 0.552593,-0.22324 0.311437,0 0.49196,0.20119 0.181901,0.19982 0.181901,0.54433 z m -0.253559,-0.0744 q -0.0028,-0.20808 -0.117133,-0.33211 -0.113,-0.12402 -0.300413,-0.12402 -0.212218,0 -0.340375,0.11989 -0.12678,0.11989 -0.146072,0.33762 z"
         style="stroke-width:0.26458332"
         id="path5002" />
      <path
         d="m 72.188072,170.27815 q 0,0.27975 0.114377,0.4396 0.115755,0.15847 0.316948,0.15847 0.201194,0 0.316949,-0.15847 0.115755,-0.15985 0.115755,-0.4396 0,-0.27974 -0.115755,-0.43821 -0.115755,-0.15985 -0.316949,-0.15985 -0.201193,0 -0.316948,0.15985 -0.114377,0.15847 -0.114377,0.43821 z m 0.864029,0.53882 q -0.07993,0.1378 -0.202571,0.20532 -0.121268,0.0661 -0.292144,0.0661 -0.279742,0 -0.456131,-0.22324 -0.175011,-0.22324 -0.175011,-0.58705 0,-0.3638 0.175011,-0.58704 0.176389,-0.22324 0.456131,-0.22324 0.170876,0 0.292144,0.0675 0.122645,0.0661 0.202571,0.20395 v -0.23427 h 0.253559 v 2.13045 h -0.253559 z"
         style="stroke-width:0.26458332"
         id="path5004" />
    </g>
  </g>
</svg>
